<?xml version="1.0" encoding="utf-8"?>
<!-- Generator: Adobe Illustrator 16.0.0, SVG Export Plug-In . SVG Version: 6.00 Build 0)  -->
<!DOCTYPE svg PUBLIC "-//W3C//DTD SVG 1.1//EN" "http://www.w3.org/Graphics/SVG/1.1/DTD/svg11.dtd">
<svg version="1.1" id="Calque_1" xmlns="http://www.w3.org/2000/svg" xmlns:xlink="http://www.w3.org/1999/xlink" x="0px" y="0px"
	 width="206px" height="45px" viewBox="0 0 206 45" enable-background="new 0 0 206 45" xml:space="preserve">
<path fill="#FFFFFF" d="M195.647,44.75V30.852H206v3.125h-6.711v2.168h6.564v3.125h-6.564v2.355H206v3.125H195.647z"/>
<path fill="#FFFFFF" d="M189.68,44.75V30.852h3.641V44.75H189.68z"/>
<path fill="#FFFFFF" d="M180.575,44.75V33.977h-3.956v-3.125h11.535v3.125h-3.937V44.75H180.575z"/>
<path fill="#FFFFFF" d="M173.78,44.75l-0.699-2h-5.568l-0.698,2h-4.127l5.313-13.898h4.572l5.336,13.898H173.78z M170.286,34.394
	l-1.799,5.23h3.6L170.286,34.394z"/>
<path fill="#FFFFFF" d="M158.285,44.75l-2.372-4.668h-1.862v4.668h-3.641V30.852h7.071c3.131,0,4.91,2.041,4.91,4.626
	c0,2.417-1.503,3.709-2.815,4.167l2.878,5.105H158.285z M158.687,35.457c0-0.938-0.804-1.48-1.759-1.48h-2.877v2.98h2.877
	C157.883,36.957,158.687,36.436,158.687,35.457z"/>
<path fill="#FFFFFF" d="M135.252,37.812c0-4.293,3.302-7.189,7.641-7.189c3.41,0,5.229,1.896,6.161,3.729l-3.133,1.459
	c-0.467-1.104-1.673-2.021-3.028-2.021c-2.307,0-3.936,1.751-3.936,4.022c0,2.271,1.629,4.021,3.936,4.021
	c1.355,0,2.562-0.917,3.028-2.021l3.133,1.458c-0.911,1.792-2.751,3.729-6.161,3.729C138.554,45,135.252,42.083,135.252,37.812z"/>
<path fill="#FFFFFF" d="M119.246,37.812c0-4.23,3.24-7.189,7.558-7.189c4.319,0,7.538,2.959,7.538,7.189
	c0,4.229-3.219,7.188-7.538,7.188C122.486,45,119.246,42.041,119.246,37.812z M130.635,37.812c0-2.271-1.502-4.022-3.831-4.022
	c-2.351,0-3.853,1.751-3.853,4.022c0,2.251,1.502,4.021,3.853,4.021C129.133,41.833,130.635,40.063,130.635,37.812z"/>
<path fill="#FFFFFF" d="M113.996,44.75v-9.043l-3.577,9.043h-1.609l-3.557-9.043v9.043h-3.641V30.852h5.059l2.943,7.543l2.963-7.543
	h5.061V44.75H113.996z"/>
<polygon fill="#FFFFFF" points="99.707,33.977 99.707,30.852 89.355,30.852 89.355,44.75 99.707,44.75 99.707,41.625 92.996,41.625 
	92.996,39.27 99.558,39.27 99.558,36.145 92.996,36.145 92.996,33.977 "/>
<polygon fill="#FFFFFF" points="99.549,26.393 96.166,26.393 93.143,29.498 95.347,29.498 "/>
<path fill="#FFFFFF" d="M74.175,44.75V30.852h5.927c4.446,0,7.642,2.625,7.642,6.939c0,4.313-3.196,6.959-7.621,6.959H74.175z
	 M84.019,37.791c0-2.146-1.312-3.814-3.895-3.814h-2.307v7.648h2.286C82.58,41.625,84.019,39.854,84.019,37.791z"/>
<path fill="#FFFFFF" d="M59.531,44.75v-6.052h0.804v5.381h3.15v0.671H59.531z"/>
<path fill="#FFFFFF" d="M69.652,44.75l-0.571-1.342h-3.216l-0.572,1.342h-0.919l2.595-6.052h0.998l2.606,6.052H69.652z
	 M67.473,39.479l-1.375,3.258h2.741L67.473,39.479z"/>
<path fill="#FFFFFF" d="M65.356,36.903v-6.052h4.233v0.671h-3.429v1.951h3.361v0.671h-3.361v2.088h3.429v0.671H65.356z"/>
<path fill="#FFFFFF" d="M59.531,36.903v-6.052h1.903c2.005,0,3.313,1.316,3.313,3.03c0,1.725-1.308,3.021-3.313,3.021H59.531z
	 M63.914,33.882c0-1.306-0.881-2.359-2.479-2.359h-1.099v4.71h1.099C63.004,36.232,63.914,35.18,63.914,33.882z"/>
<path fill="#FFFFFF" d="M188.923,24.816V10.918h8.778v1.083h-7.594v5.147h7.449v1.083h-7.449v5.501h7.594v1.083H188.923z"/>
<path fill="#FFFFFF" d="M184.918,24.816l-3.88-5.751h-3.051v5.751h-1.184V10.918h5.167c2.388,0,4.214,1.521,4.214,4.063
	c0,2.521-1.765,3.917-3.839,4.001l4.005,5.834H184.918z M184.939,14.981c0-1.75-1.226-2.98-3.072-2.98h-3.88v5.98h3.88
	C183.714,17.982,184.939,16.732,184.939,14.981z"/>
<path fill="#FFFFFF" d="M172.383,24.816V10.918h1.185v13.898H172.383z"/>
<path fill="#FFFFFF" d="M156.216,17.878c0-4.064,2.657-7.189,6.725-7.189c4.047,0,6.723,3.125,6.723,7.189
	c0,4.063-2.676,7.188-6.723,7.188C158.873,25.066,156.216,21.941,156.216,17.878z M168.418,17.878c0-3.522-2.158-6.106-5.478-6.106
	c-3.343,0-5.479,2.584-5.479,6.106c0,3.5,2.137,6.105,5.479,6.105C166.26,23.983,168.418,21.378,168.418,17.878z"/>
<path fill="#FFFFFF" d="M149.366,24.816V12.001h-4.524v-1.083h10.253v1.083h-4.524v12.815H149.366z"/>
<path fill="#FFFFFF" d="M144.073,24.816l-1.368-3.417h-7.326l-1.37,3.417h-1.369l5.665-13.898h1.473l5.667,13.898H144.073z
	 M139.054,12.189l-3.281,8.127h6.539L139.054,12.189z"/>
<path fill="#FFFFFF" d="M126.267,24.816l-5.664-13.898h1.368l5.045,12.565l5.021-12.565h1.37l-5.665,13.898H126.267z"/>
<path fill="#FFFFFF" d="M118.215,24.816l-3.882-5.751h-3.05v5.751h-1.183V10.918h5.168c2.386,0,4.213,1.521,4.213,4.063
	c0,2.521-1.765,3.917-3.84,4.001l4.005,5.834H118.215z M118.236,14.981c0-1.75-1.225-2.98-3.071-2.98h-3.882v5.98h3.882
	C117.012,17.982,118.236,16.732,118.236,14.981z"/>
<path fill="#FFFFFF" d="M98.603,24.816V10.918h8.778v1.083h-7.595v5.147h7.451v1.083h-7.451v5.501h7.595v1.083H98.603z"/>
<path fill="#FFFFFF" d="M85.985,22.858l0.768-0.896c0.892,1.021,2.345,2.021,4.337,2.021c2.822,0,3.632-1.584,3.632-2.771
	c0-4.084-8.302-1.959-8.302-6.814c0-2.271,2.034-3.709,4.545-3.709c2.055,0,3.632,0.729,4.69,1.958l-0.789,0.875
	c-0.996-1.208-2.407-1.75-3.963-1.75c-1.847,0-3.237,1.063-3.237,2.563c0,3.563,8.301,1.605,8.301,6.793
	c0,1.792-1.183,3.938-4.918,3.938C88.766,25.066,87.043,24.129,85.985,22.858z"/>
<path fill="#FFFFFF" d="M74.196,24.816V10.918h5.687c2.324,0,3.818,1.354,3.818,3.542c0,1.75-1.183,2.938-2.428,3.188
	c1.473,0.229,2.697,1.771,2.697,3.417c0,2.313-1.494,3.75-3.963,3.75H74.196z M82.456,14.585c0-1.417-0.934-2.583-2.719-2.583
	h-4.358v5.147h4.358C81.522,17.148,82.456,16.023,82.456,14.585z M82.726,20.983c0-1.417-0.975-2.751-2.905-2.751h-4.442v5.501
	h4.442C81.646,23.733,82.726,22.671,82.726,20.983z"/>
<path fill="#FFFFFF" d="M58.029,17.878c0-4.064,2.656-7.189,6.724-7.189c4.047,0,6.725,3.125,6.725,7.189
	c0,4.063-2.678,7.188-6.725,7.188C60.686,25.066,58.029,21.941,58.029,17.878z M70.232,17.878c0-3.522-2.159-6.106-5.479-6.106
	c-3.341,0-5.479,2.584-5.479,6.106c0,3.5,2.137,6.105,5.479,6.105C68.073,23.983,70.232,21.378,70.232,17.878z"/>
<path id="obs" fill="#FFFFFF" d="M50.894,32.967c0.006-0.001,0.014,0,0.02,0c0.36,0,0.652-0.293,0.652-0.654
	c0-0.267-0.158-0.496-0.385-0.599l-8.287-5.839h2.022c0.36,0,0.653-0.293,0.653-0.654s-0.292-0.655-0.653-0.655h-3.436v-3.567
	l2.154-0.563c0.016-0.004,0.027-0.016,0.042-0.021c0.044-0.015,0.082-0.036,0.12-0.059c0.036-0.021,0.069-0.041,0.1-0.067
	c0.031-0.028,0.056-0.06,0.082-0.093c0.025-0.033,0.05-0.065,0.069-0.103c0.018-0.037,0.029-0.075,0.04-0.114
	c0.012-0.043,0.023-0.085,0.026-0.13c0.001-0.017,0.009-0.03,0.009-0.047c0-2.532-0.67-5.211-1.959-7.73l9.055-5.719
	c0.305-0.192,0.397-0.596,0.206-0.902l-3.201-5.143c-0.191-0.307-0.593-0.4-0.898-0.209l-9.791,6.12
	c-2.439-2.088-5.532-3.719-9.279-4.524c0,0,0,0-0.001,0h-0.001c-0.004-0.001-0.008-0.002-0.012-0.003
	c-0.037-0.008-0.071,0-0.107-0.001c-0.049-0.002-0.1-0.01-0.148-0.001c-0.027,0.005-0.05,0.021-0.076,0.03
	c-0.054,0.017-0.108,0.032-0.155,0.063c-0.028,0.018-0.048,0.046-0.074,0.069c-0.037,0.032-0.077,0.062-0.105,0.102
	c-0.026,0.036-0.037,0.08-0.055,0.12c-0.017,0.037-0.04,0.069-0.05,0.11l-0.003,0.012c0,0,0,0,0,0v0l-0.508,2.183
	c-1.309-0.24-2.699-0.373-4.175-0.373c-12.144,0-18.697,8.667-18.697,16.822v3.737H0.652C0.292,24.565,0,24.859,0,25.221
	s0.292,0.654,0.652,0.654h3.435v18.221c0,0.361,0.292,0.654,0.653,0.654h45.734c0.007,0,0.014,0,0.021,0
	c0.36,0,0.652-0.293,0.652-0.654c0-0.1-0.671-3.448-0.671-3.448c-0.059-0.309-0.328-0.53-0.64-0.53h-0.827v-7.15H50.894z
	 M48.356,31.656H33.301H32.83l7.999-5.636l8,5.636H48.356z M41.331,40.117v-7.15h2.76v7.15H41.331z M33.953,32.967h2.61v7.15h-2.61
	V32.967z M37.566,32.967h2.76v7.15h-2.76V32.967z M47.462,1.557l2.511,4.035L48.52,6.509l-2.515-4.041L47.462,1.557z M45.579,2.734
	l2.516,4.043l-6.569,4.149c-0.811-1.345-1.81-2.621-2.995-3.787L45.579,2.734z M28.589,3.134
	c9.104,2.234,13.969,9.649,14.206,16.168l-1.372,0.358c-0.491-6.466-5.048-12.958-13.191-14.989L28.589,3.134z M22.784,5.316
	c11.296,0,17.392,7.992,17.392,15.512v3.737H5.392v-3.737C5.392,13.309,11.488,5.316,22.784,5.316z M5.392,25.875h33.371l-8.374,5.9
	c-0.233,0.164-0.333,0.461-0.247,0.734c0.086,0.271,0.337,0.457,0.622,0.457h1.884v7.15h-0.827c-0.313,0-0.582,0.222-0.64,0.53
	l-0.537,2.793H5.392V25.875z M49.685,43.44H31.973l0.387-2.014h16.938L49.685,43.44z M47.705,40.117h-2.61v-7.15h2.61V40.117z"/>
</svg>
