<?xml version="1.0" encoding="utf-8"?>
<!-- Generator: Adobe Illustrator 16.0.0, SVG Export Plug-In . SVG Version: 6.00 Build 0)  -->
<!DOCTYPE svg PUBLIC "-//W3C//DTD SVG 1.1//EN" "http://www.w3.org/Graphics/SVG/1.1/DTD/svg11.dtd">
<svg version="1.1" id="Calque_1" xmlns="http://www.w3.org/2000/svg" xmlns:xlink="http://www.w3.org/1999/xlink" x="0px" y="0px"
	 width="210px" height="45px" viewBox="0 0 210 45" enable-background="new 0 0 210 45" xml:space="preserve">
<g>
	<polygon fill="#FFFFFF" points="66.829,25.834 60.134,25.834 60.134,13.012 58.932,13.012 58.932,26.918 66.829,26.918 	"/>
	<path fill="#FFFFFF" d="M66.126,16.473l0.601,0.5c0.809-0.584,1.493-1.668,1.493-2.836c0-0.854-0.498-1.334-1.057-1.334
		c-0.498,0-0.892,0.417-0.892,0.897c0,0.5,0.353,0.875,0.85,0.875c0.062,0,0.208-0.021,0.208-0.042
		C67.287,15.201,66.79,16.014,66.126,16.473z"/>
	<path fill="#FFFFFF" d="M77.176,27.168c4.042,0,6.716-3.128,6.716-7.192c0-4.066-2.674-7.193-6.716-7.193
		c-4.063,0-6.716,3.127-6.716,7.193C70.46,24.04,73.113,27.168,77.176,27.168z M77.176,13.867c3.316,0,5.472,2.585,5.472,6.109
		c0,3.503-2.156,6.109-5.472,6.109c-3.337,0-5.472-2.606-5.472-6.109C71.704,16.452,73.839,13.867,77.176,13.867z"/>
	<path fill="#FFFFFF" d="M96.375,23.166c0-1.648-1.223-3.19-2.695-3.42c1.244-0.25,2.425-1.439,2.425-3.19
		c0-2.189-1.492-3.544-3.813-3.544h-5.68v13.906h5.803C94.883,26.918,96.375,25.479,96.375,23.166z M87.793,14.096h4.353
		c1.782,0,2.715,1.167,2.715,2.585c0,1.438-0.933,2.564-2.715,2.564h-4.353V14.096z M87.793,25.834V20.33h4.436
		c1.927,0,2.901,1.334,2.901,2.752c0,1.688-1.079,2.752-2.901,2.752H87.793z"/>
	<path fill="#FFFFFF" d="M100.067,16.431c0-1.501,1.389-2.564,3.235-2.564c1.555,0,2.962,0.542,3.957,1.751l0.789-0.876
		c-1.058-1.23-2.634-1.96-4.686-1.96c-2.509,0-4.539,1.439-4.539,3.711c0,4.858,8.291,2.731,8.291,6.818
		c0,1.188-0.808,2.773-3.627,2.773c-1.989,0-3.44-1.001-4.333-2.023l-0.766,0.896c1.058,1.272,2.776,2.21,5.058,2.21
		c3.73,0,4.913-2.146,4.913-3.94C108.36,18.037,100.067,19.996,100.067,16.431z"/>
	<polygon fill="#FFFFFF" points="119.764,25.834 112.177,25.834 112.177,20.33 119.619,20.33 119.619,19.246 112.177,19.246 
		112.177,14.096 119.764,14.096 119.764,13.012 110.996,13.012 110.996,26.918 119.764,26.918 	"/>
	<path fill="#FFFFFF" d="M130.587,26.918h1.431l-4-5.837c2.071-0.084,3.834-1.481,3.834-4.003c0-2.543-1.823-4.065-4.208-4.065
		h-5.161v13.906h1.183v-5.754h3.047L130.587,26.918z M123.665,14.096h3.875c1.845,0,3.068,1.23,3.068,2.981
		c0,1.751-1.224,3.002-3.068,3.002h-3.875V14.096z"/>
	<polygon fill="#FFFFFF" points="144.396,13.012 139.381,25.584 134.342,13.012 132.976,13.012 138.633,26.918 140.105,26.918 
		145.764,13.012 	"/>
	<path fill="#FFFFFF" d="M155.053,23.498l1.369,3.42h1.369l-5.659-13.906h-1.473L145,26.918h1.369l1.366-3.42H155.053z
		 M151.405,14.284l3.254,8.131h-6.528L151.405,14.284z"/>
	<polygon fill="#FFFFFF" points="157.193,14.096 161.711,14.096 161.711,26.918 162.913,26.918 162.913,14.096 167.433,14.096 
		167.433,13.012 157.193,13.012 	"/>
	<path fill="#FFFFFF" d="M175.271,12.782c-4.063,0-6.716,3.127-6.716,7.193c0,4.064,2.653,7.192,6.716,7.192
		c4.042,0,6.717-3.128,6.717-7.192C181.987,15.909,179.313,12.782,175.271,12.782z M175.271,26.085
		c-3.337,0-5.473-2.606-5.473-6.109c0-3.524,2.136-6.109,5.473-6.109c3.317,0,5.473,2.585,5.473,6.109
		C180.743,23.479,178.588,26.085,175.271,26.085z"/>
	<rect x="184.707" y="13.012" fill="#FFFFFF" width="1.181" height="13.906"/>
	<path fill="#FFFFFF" d="M198.492,17.077c0-2.543-1.823-4.065-4.208-4.065h-5.162v13.906h1.183v-5.754h3.047l3.875,5.754h1.432
		l-4-5.837C196.729,20.997,198.492,19.6,198.492,17.077z M190.305,20.08v-5.983h3.875c1.845,0,3.068,1.23,3.068,2.981
		c0,1.751-1.224,3.002-3.068,3.002H190.305z"/>
	<polygon fill="#FFFFFF" points="210,14.096 210,13.012 201.231,13.012 201.231,26.918 210,26.918 210,25.834 202.414,25.834 
		202.414,20.33 209.854,20.33 209.854,19.246 202.414,19.246 202.414,14.096 	"/>
	<rect x="58.932" y="30.843" fill="#FFFFFF" width="3.565" height="13.907"/>
	<polygon fill="#FFFFFF" points="74.251,38.495 68.654,30.843 64.986,30.843 64.986,44.75 68.551,44.75 68.551,36.702 74.396,44.75 
		77.837,44.75 77.837,30.843 74.251,30.843 	"/>
	<path fill="#FFFFFF" d="M83.417,34.699c0-0.583,0.456-1,1.493-1c1.368,0,2.881,0.48,4.042,1.439l1.948-2.564
		c-1.471-1.272-3.399-1.94-5.617-1.94c-3.544,0-5.514,2.086-5.514,4.42c0,5.359,7.836,3.837,7.836,5.733
		c0,0.668-0.747,1.148-1.969,1.148c-1.887,0-3.42-0.835-4.416-1.836l-1.886,2.69C80.723,44.124,82.671,45,85.47,45
		c3.711,0,5.763-1.855,5.763-4.65C91.232,35.18,83.417,36.472,83.417,34.699z"/>
	<path fill="#FFFFFF" d="M99.59,30.612c-4.229,0-7.4,2.963-7.4,7.195S95.361,45,99.59,45s7.379-2.96,7.379-7.192
		S103.818,30.612,99.59,30.612z M99.59,41.831c-2.301,0-3.772-1.772-3.772-4.023c0-2.273,1.472-4.024,3.772-4.024
		c2.28,0,3.752,1.751,3.752,4.024C103.342,40.059,101.87,41.831,99.59,41.831z"/>
	<path fill="#FFFFFF" d="M118.229,38.995c0,1.646-0.995,2.836-2.901,2.836c-1.949,0-2.924-1.189-2.924-2.836v-8.152h-3.627v8.278
		c0,3.419,2.094,5.879,6.551,5.879c4.414,0,6.509-2.44,6.509-5.9v-8.257h-3.607V38.995z"/>
	<polygon fill="#FFFFFF" points="132.163,38.391 129.281,30.843 124.327,30.843 124.327,44.75 127.894,44.75 127.894,35.7 
		131.376,44.75 132.951,44.75 136.454,35.7 136.454,44.75 140.019,44.75 140.019,30.843 135.064,30.843 	"/>
	<rect x="142.512" y="30.843" fill="#FFFFFF" width="3.565" height="13.907"/>
	<path fill="#FFFFFF" d="M151.655,34.699c0-0.583,0.456-1,1.492-1c1.368,0,2.881,0.48,4.042,1.439l1.948-2.564
		c-1.472-1.272-3.399-1.94-5.618-1.94c-3.544,0-5.513,2.086-5.513,4.42c0,5.359,7.836,3.837,7.836,5.733
		c0,0.668-0.747,1.148-1.971,1.148c-1.886,0-3.419-0.835-4.414-1.836l-1.887,2.69c1.39,1.334,3.338,2.21,6.136,2.21
		c3.711,0,5.763-1.855,5.763-4.65C159.47,35.18,151.655,36.472,151.655,34.699z"/>
	<path fill="#FFFFFF" d="M51.12,31.731l-8.277-5.842h2.02c0.36,0,0.652-0.294,0.652-0.656s-0.292-0.655-0.652-0.655h-3.432V21.01
		l2.151-0.563c0.016-0.004,0.027-0.016,0.042-0.021c0.043-0.015,0.081-0.036,0.12-0.059c0.035-0.021,0.069-0.041,0.099-0.068
		c0.031-0.028,0.056-0.06,0.082-0.093c0.025-0.034,0.05-0.065,0.069-0.103c0.018-0.037,0.028-0.074,0.04-0.114
		c0.012-0.043,0.023-0.085,0.026-0.13c0.001-0.016,0.009-0.03,0.009-0.047c0-2.533-0.669-5.214-1.957-7.734l9.044-5.723
		c0.304-0.192,0.396-0.596,0.206-0.902l-3.196-5.146c-0.191-0.307-0.592-0.4-0.897-0.209l-9.779,6.123
		c-2.437-2.089-5.526-3.721-9.268-4.526c0,0,0,0-0.001,0s0,0-0.001,0c-0.004-0.001-0.007-0.002-0.011-0.003
		c-0.037-0.008-0.072,0-0.108-0.001c-0.049-0.002-0.1-0.01-0.147-0.001c-0.027,0.005-0.05,0.021-0.076,0.029
		c-0.053,0.018-0.108,0.032-0.155,0.063c-0.028,0.019-0.048,0.046-0.074,0.069c-0.037,0.032-0.077,0.062-0.106,0.102
		c-0.025,0.036-0.037,0.08-0.055,0.12c-0.016,0.037-0.04,0.07-0.05,0.11l-0.003,0.012c0,0,0,0,0,0s0,0,0,0l-0.508,2.184
		c-1.308-0.24-2.696-0.373-4.17-0.373c-12.129,0-18.674,8.672-18.674,16.832v3.738H0.651C0.292,24.578,0,24.871,0,25.233
		s0.292,0.656,0.651,0.656h3.431v18.229c0,0.361,0.292,0.654,0.651,0.654h45.68c0.007,0,0.014,0,0.02,0
		c0.36,0,0.652-0.293,0.652-0.654c0-0.1-0.67-3.45-0.67-3.45c-0.059-0.31-0.327-0.531-0.64-0.531H48.95v-7.154h1.882
		c0.006,0,0.014,0,0.02,0c0.36,0,0.651-0.293,0.651-0.654C51.504,32.063,51.346,31.834,51.12,31.731z M48.769,31.674h-0.471H33.26
		H32.79l7.99-5.64L48.769,31.674z M47.647,32.983v7.154H45.04v-7.154H47.647z M44.038,32.983v7.154h-2.757v-7.154H44.038z
		 M40.278,32.983v7.154h-2.757v-7.154H40.278z M36.519,32.983v7.154h-2.607v-7.154H36.519z M47.405,1.558l2.508,4.036l-1.452,0.918
		l-2.512-4.043L47.405,1.558z M45.524,2.736l2.513,4.045l-6.562,4.151c-0.81-1.345-1.808-2.623-2.991-3.789L45.524,2.736z
		 M28.554,3.135c9.093,2.235,13.953,9.654,14.188,16.177l-1.37,0.358c-0.491-6.47-5.042-12.965-13.175-14.997L28.554,3.135z
		 M5.386,20.84c0-7.524,6.088-15.521,17.371-15.521c11.283,0,17.372,7.996,17.372,15.521v3.738H5.386V20.84z M31.143,40.669
		l-0.536,2.795H5.386V25.89h33.33l-8.364,5.902c-0.232,0.165-0.333,0.461-0.247,0.735c0.086,0.271,0.337,0.456,0.622,0.456h1.882
		v7.154h-0.827C31.47,40.138,31.202,40.359,31.143,40.669z M49.238,41.449l0.386,2.015h-17.69l0.386-2.015H49.238z"/>
	<path fill="#FFFFFF" d="M26.802,10.085c-0.797-0.28-1.599-0.208-2.305,0.203c-0.725,0.421-1.316,1.18-1.759,2.255
		c-0.735,1.784-0.94,3.763-0.983,5.109l-0.002,0.135l-0.102-0.041c-0.62-0.249-1.176-0.649-1.608-1.155
		c-0.716-0.839-1.057-1.901-0.961-2.994c0.096-1.091,0.617-2.08,1.468-2.785c0.293-0.243,0.619-0.445,0.968-0.601l0.312-0.14
		l-0.225,0.259c-0.243,0.28-0.22,0.696,0.053,0.947c0.13,0.122,0.301,0.188,0.48,0.188c0.196,0,0.377-0.078,0.512-0.218
		c0.737-0.774,1.365-1.584,0.963-2.268c-0.104-0.176-0.363-0.472-0.93-0.472c-0.161,0.001-0.298,0.024-0.365,0.039
		c-0.984,0.16-1.907,0.579-2.671,1.212c-1.137,0.941-1.834,2.263-1.961,3.72c-0.128,1.457,0.328,2.875,1.284,3.995
		c0.722,0.845,1.672,1.449,2.75,1.746l0.052,0.014l0.003,0.055c0.063,1.093,0.224,2.07,0.464,2.824
		c0.092,0.289,0.361,0.483,0.668,0.483c0.071,0,0.142-0.012,0.21-0.033l0.028-0.008c0.355-0.132,0.541-0.506,0.429-0.854
		c-0.184-0.573-0.315-1.331-0.381-2.195l-0.006-0.081l0.082-0.001c0.66-0.004,1.306-0.122,1.919-0.349
		c0.589-0.218,1.134-0.532,1.62-0.935c0.842-0.696,1.464-1.621,1.799-2.676c0.331-1.042,0.352-2.114,0.061-3.101
		C28.618,12.181,28.154,10.558,26.802,10.085z M25.905,17.091c-0.748,0.618-1.697,0.959-2.674,0.959h-0.077l-0.006-0.077
		c0.001-0.093,0.003-0.185,0.006-0.278c0.057-1.745,0.369-3.392,0.882-4.635c0.482-1.17,1.095-1.763,1.822-1.763
		c0.155,0,0.315,0.028,0.474,0.084c0.562,0.196,0.904,1.049,0.979,1.332l0.007,0.028C27.765,14.242,27.184,16.031,25.905,17.091z"/>
</g>
</svg>
