<?xml version="1.0" standalone="no"?>
<!DOCTYPE svg PUBLIC "-//W3C//DTD SVG 20010904//EN"
 "http://www.w3.org/TR/2001/REC-SVG-20010904/DTD/svg10.dtd">
<svg version="1.0" xmlns="http://www.w3.org/2000/svg"
 width="260.000000pt" height="260.000000pt" viewBox="0 0 260.000000 260.000000"
 preserveAspectRatio="xMidYMid meet">
<metadata>
Created by potrace 1.11, written by Peter Selinger 2001-2013
</metadata>
<g transform="translate(0.000000,260.000000) scale(0.100000,-0.100000)"
fill="#000000" stroke="none">
<path d="M1975 2080 c-104 -66 -193 -120 -197 -120 -5 0 -29 15 -55 34 -96 67
-241 131 -318 138 -28 3 -31 0 -45 -50 l-15 -52 -60 7 c-181 20 -378 -17 -518
-97 -157 -89 -282 -255 -323 -427 -9 -37 -18 -115 -19 -173 -2 -58 -3 -110 -4
-116 -1 -7 -27 -11 -72 -11 -74 0 -94 -9 -83 -36 5 -14 21 -17 78 -18 39 -1
73 -1 76 -1 3 0 5 -165 4 -366 0 -215 4 -372 9 -379 7 -10 208 -13 943 -13
901 0 934 1 943 19 6 10 8 20 6 23 -3 3 -10 31 -16 64 -12 65 -25 88 -46 80
-21 -8 -26 16 -27 143 -2 133 3 152 39 145 29 -5 65 11 65 29 0 7 -77 66 -170
132 -94 66 -170 121 -170 123 0 2 10 3 23 2 46 -4 65 0 71 17 11 27 -9 35 -86
37 l-73 1 0 69 0 69 50 16 50 16 1 57 c0 65 -15 133 -49 218 l-24 57 179 114
c99 63 184 119 190 126 8 10 1 30 -28 76 -87 143 -105 167 -122 167 -9 -1
-102 -54 -207 -120z m245 -12 c25 -40 47 -76 49 -81 4 -9 -29 -36 -45 -37 -6
0 -32 34 -59 76 l-48 77 24 18 c13 10 26 19 29 19 3 0 25 -33 50 -72z m-104
-1 c6 -12 27 -48 47 -79 l37 -57 -120 -76 c-66 -41 -126 -78 -133 -81 -7 -2
-27 14 -44 38 -18 24 -44 56 -58 71 -15 16 -23 32 -19 37 14 13 266 170 273
170 3 0 11 -10 17 -23z m-520 -60 c151 -77 277 -212 340 -366 25 -64 56 -199
48 -212 -7 -12 -54 -17 -55 -5 -7 117 -74 272 -159 369 -82 92 -245 196 -337
213 -29 6 -32 9 -27 33 4 14 9 29 11 33 5 9 107 -29 179 -65z m-291 -28 c28
-5 63 -12 78 -14 96 -18 242 -101 322 -183 117 -121 164 -241 172 -438 l5
-130 -701 -1 -701 0 -1 21 c-2 43 0 133 4 186 6 80 24 135 70 224 109 210 345
341 621 344 45 0 104 -4 131 -9z m505 -824 c0 -2 -72 -54 -161 -116 -88 -62
-165 -121 -170 -130 -11 -22 4 -33 46 -36 17 0 35 -2 40 -2 6 -1 10 -54 11
-141 0 -120 -2 -140 -15 -140 -27 0 -42 -16 -47 -46 -2 -16 -8 -43 -12 -59
l-8 -30 -507 -2 c-472 -2 -507 -1 -508 15 -1 26 -1 655 0 674 1 16 49 17 666
17 366 0 665 -2 665 -4z m255 -112 c84 -60 152 -110 149 -112 -3 -3 -524 -5
-603 -2 -20 1 -15 7 31 39 200 137 239 165 244 173 3 5 10 9 15 9 6 0 80 -48
164 -107z m-340 -172 c9 -1 12 -177 6 -272 -1 -15 -11 -16 -93 -10 -12 1 -10
279 2 283 8 2 40 2 85 -1z m156 0 c3 -1 5 -65 5 -142 l-1 -142 -53 -1 c-39 -1
-52 3 -53 14 -4 37 -5 256 -2 266 3 8 61 11 104 5z m156 -139 l2 -142 -27 -1
c-15 0 -39 -2 -54 -3 -16 -1 -28 1 -29 4 -5 32 -2 281 3 283 5 1 29 2 55 1
l48 -1 2 -141z m144 128 c3 -38 4 -256 2 -265 -3 -9 -27 -11 -91 -6 -9 1 -12
35 -11 144 l1 142 49 0 c36 0 49 -4 50 -15z m73 -352 c16 -60 39 -56 -348 -57
l-355 0 6 27 c3 15 6 33 6 40 0 9 76 12 343 12 l342 0 6 -22z"/>
</g>
</svg>
