<?xml version="1.0" encoding="utf-8"?>
<!-- Generator: Adobe Illustrator 16.0.0, SVG Export Plug-In . SVG Version: 6.00 Build 0)  -->
<!DOCTYPE svg PUBLIC "-//W3C//DTD SVG 1.1//EN" "http://www.w3.org/Graphics/SVG/1.1/DTD/svg11.dtd">
<svg version="1.1" id="Calque_1" xmlns="http://www.w3.org/2000/svg" xmlns:xlink="http://www.w3.org/1999/xlink" x="0px" y="0px"
	 width="62px" height="66px" viewBox="0 0 62 66" enable-background="new 0 0 62 66" xml:space="preserve">
<rect y="3.94" fill="#213558" width="62" height="62.06"/>
<polygon fill="#7C0038" points="49.812,0 36.404,0 37.235,3.94 50.643,3.94 "/>
<polygon fill="#C40050" points="26.242,0 12.729,0 11.927,3.94 25.411,3.94 "/>
<polygon fill="#C40050" points="24.62,15.304 38.025,15.304 49.812,0 36.404,0 "/>
<path fill="#AAAAAA" d="M40.516,21.364H21.487V13.03h19.028V21.364L40.516,21.364z M23.647,19.2h14.705v-4.005H23.647V19.2z"/>
<polygon fill="#FF0052" points="38.025,15.304 24.62,15.304 12.729,0 26.242,0 "/>
<path fill="#D1D1D1" d="M31,15.844c11.049,0,20,8.964,20,20.022s-8.951,20.019-20,20.019c-11.046,0-20-8.961-20-20.019
	S19.954,15.844,31,15.844z"/>
<path fill="#AAAAAA" d="M31,51.015c-8.324,0-15.134-6.816-15.134-15.148c0-8.334,6.81-15.152,15.134-15.152
	s15.135,6.818,15.135,15.152C46.135,44.198,39.324,51.015,31,51.015z"/>
</svg>
