<?xml version="1.0" encoding="UTF-8"?>
<svg width="84px" height="70px" viewBox="0 0 84 70" version="1.1" xmlns="http://www.w3.org/2000/svg" xmlns:xlink="http://www.w3.org/1999/xlink">
    <!-- Generator: Sketch 42 (36781) - http://www.bohemiancoding.com/sketch -->
    <title>Group</title>
    <desc>Created with Sketch.</desc>
    <defs></defs>
    <g id="Page-1" stroke="none" stroke-width="1" fill="none" fill-rule="evenodd">
        <g id="Group" fill-rule="nonzero" fill="#82CDE2">
            <path d="M73.9,64.755 C73.333,64.752 72.766,64.755 72.149,64.755 C72.101,63.986 72.057,63.33 72.019,62.674 C71.773,58.394 71.531,54.113 71.283,49.833 C71.002,45.004 70.71,40.175 70.437,35.345 C70.379,34.322 70.935,33.645 71.892,33.472 C72.957,33.279 73.473,32.73 73.397,31.869 C73.327,31.081 72.686,30.55 71.692,30.547 C67.898,30.533 64.104,30.533 60.31,30.545 C59.268,30.548 58.598,31.086 58.529,31.889 C58.458,32.718 59.003,33.28 60.066,33.473 C60.946,33.633 61.463,34.21 61.492,35.112 C61.507,35.578 61.477,36.047 61.45,36.513 C61.017,44.059 60.583,51.605 60.145,59.15 C60.038,60.982 59.913,62.813 59.789,64.755 L58.859,64.755 C55.587,64.755 52.315,64.729 49.044,64.774 C48.287,64.785 48.131,64.507 48.104,63.835 C48.006,61.391 47.867,58.949 47.724,56.507 C47.315,49.51 46.893,42.515 46.483,35.518 C46.411,34.288 46.895,33.693 48.097,33.458 C49.013,33.279 49.509,32.697 49.446,31.878 C49.39,31.152 48.774,30.558 47.915,30.554 C43.984,30.533 40.052,30.536 36.121,30.559 C35.264,30.564 34.65,31.155 34.592,31.885 C34.528,32.699 35.026,33.275 35.949,33.453 C37.124,33.68 37.595,34.238 37.553,35.438 C37.51,36.646 37.427,37.853 37.356,39.06 C36.874,47.346 36.385,55.632 35.922,63.92 C35.888,64.53 35.76,64.778 35.081,64.771 C31.727,64.735 28.372,64.737 25.018,64.77 C24.361,64.776 24.194,64.566 24.165,63.934 C24.014,60.64 23.819,57.347 23.627,54.054 C23.268,47.88 22.894,41.708 22.54,35.534 C22.465,34.233 22.909,33.71 24.205,33.442 C25.073,33.262 25.549,32.695 25.495,31.902 C25.447,31.194 24.864,30.638 24.065,30.561 C23.792,30.534 23.516,30.542 23.241,30.541 C20.409,30.538 17.577,30.535 14.745,30.536 C13.865,30.536 12.984,30.519 12.106,30.562 C11.242,30.604 10.658,31.176 10.626,31.928 C10.592,32.73 11.067,33.282 11.938,33.454 C13.215,33.705 13.659,34.321 13.576,35.65 C13.369,38.942 13.173,42.234 12.982,45.526 C12.685,50.657 12.398,55.789 12.102,60.92 C12.029,62.175 11.935,63.428 11.846,64.758 C11.087,64.758 10.403,64.732 9.722,64.763 C7.897,64.848 6.711,66.462 7.23,68.126 C7.596,69.299 8.608,69.935 10.147,69.936 C23.784,69.94 37.421,69.941 51.058,69.942 C58.674,69.943 66.29,69.943 73.906,69.94 C75.688,69.939 76.89,68.886 76.89,67.342 C76.892,65.8 75.696,64.766 73.9,64.755 Z" id="Shape"></path>
            <path d="M82.241,20.422 C82.12,20.357 81.998,20.294 81.876,20.231 C69.274,13.695 56.668,7.166 44.074,0.614 C42.657,-0.123 41.335,-0.127 39.921,0.612 C33.666,3.881 27.394,7.116 21.129,10.365 C14.669,13.715 8.21,17.065 1.753,20.421 C0.395,21.127 0.132,21.962 0.806,23.329 C1.182,24.092 1.586,24.843 1.943,25.615 C2.594,27.019 3.689,27.651 5.221,27.65 C17.484,27.642 29.746,27.646 42.009,27.645 L50.505,27.645 C59.936,27.645 69.366,27.64 78.797,27.649 C80.33,27.65 81.425,27.02 82.078,25.618 C82.426,24.871 82.817,24.145 83.182,23.407 C83.876,22.003 83.604,21.149 82.241,20.422 Z" id="Shape"></path>
        </g>
    </g>
</svg>