<?xml version="1.0" encoding="UTF-8"?>
<svg width="88px" height="90px" viewBox="0 0 88 90" version="1.1" xmlns="http://www.w3.org/2000/svg" xmlns:xlink="http://www.w3.org/1999/xlink">
    <g id="Page-1" stroke="none" stroke-width="1" fill="none" fill-rule="evenodd">
        <g id="Group" transform="translate(-1.000000, 0.637820)" fill-rule="nonzero" fill="#82CDE2">
            <g transform="translate(0.992127, 0.354310)" id="Shape">
                <path d="M70.97244,0 L12.791338,0 C15.661417,2.5866141 15.909449,6.9448818 15.909449,10.133858 L15.909449,78.944881 C15.909449,81.744094 16.830708,83.940944 18.354331,85.499999 C19.771653,86.952755 21.755905,87.838582 24.23622,87.980314 C26.610236,87.803149 29.905511,85.3937 29.905511,80.999999 C29.905511,76.429133 26.326771,74.019684 23.917323,74.019684 C23.385827,74.019684 22.925197,73.523621 22.925197,73.027558 C22.925197,72.496062 23.385827,72.035432 23.917323,71.999999 L78.023621,71.999999 C77.952751,50.385826 77.988191,28.700787 77.988191,7.0866141 C77.988191,5.3858267 77.102364,3.5787401 75.755908,2.2322834 C74.267716,1.0984252 72.602361,0.03543307 70.97244,0 Z M6.8740157,0 C1.8779527,0.17716535 0.17716535,3.9330708 0,8.0078739 L13.783464,8.0078739 C13.570866,3.4370078 11.267716,0.07086614 6.8740157,0 Z M56.940944,13.03937 L56.940944,15.059055 L32.917322,15.059055 L32.917322,13.03937 L56.940944,13.03937 Z M72.35433,21.047244 L72.35433,23.031496 L22.287401,23.031496 L22.287401,21.047244 L72.35433,21.047244 Z M72.35433,29.055118 L72.35433,31.03937 L22.287401,31.03937 L22.287401,29.055118 L72.35433,29.055118 Z M72.35433,37.062992 L72.35433,39.047244 L22.287401,39.047244 L22.287401,37.062992 L72.35433,37.062992 Z M72.35433,45.035433 L72.35433,47.055118 L22.287401,47.055118 L22.287401,45.035433 L72.35433,45.035433 Z M72.35433,53.043307 L72.35433,55.062992 L46.311023,55.062992 L46.311023,53.043307 L72.35433,53.043307 Z M44.326771,65.055117 L44.326771,67.039369 L22.287401,67.039369 L22.287401,65.055117 L44.326771,65.055117 Z M81.992125,74.019684 L28.771653,74.019684 C30.543307,75.578739 31.925197,77.917322 31.925197,80.999999 C31.925197,84.082676 30.614173,86.456692 28.842519,88.015747 L81.992125,88.015747 C84.401574,88.015747 88.015747,85.499999 88.015747,80.999999 C87.944877,78.094487 85.677164,74.019684 81.992125,74.019684 Z"></path>
            </g>
        </g>
    </g>
</svg>
