<?xml version="1.0" encoding="UTF-8"?>
<svg width="76px" height="58px" viewBox="0 0 76 58" version="1.1" xmlns="http://www.w3.org/2000/svg" xmlns:xlink="http://www.w3.org/1999/xlink">
    <!-- Generator: Sketch 42 (36781) - http://www.bohemiancoding.com/sketch -->
    <title>Group</title>
    <desc>Created with Sketch.</desc>
    <defs></defs>
    <g id="Page-1" stroke="none" stroke-width="1" fill="none" fill-rule="evenodd">
        <g id="Group" fill-rule="nonzero" fill="#82CDE2">
            <rect id="Rectangle-path" x="44.3" y="1.8" width="3.2" height="5"></rect>
            <polygon id="Shape" points="70 51.1 6.1 51.1 6.1 54.2 0.8 54.2 0.8 57.4 75.4 57.4 75.4 54.2 70 54.2"></polygon>
            <polygon id="Shape" points="22.5 30.7 27.6 30.7 27.6 30.7 35.1 30.7 35.1 30.7 40.2 30.7 40.2 30.7 47.6 30.7 47.6 30.7 52.7 30.7 52.7 30.7 60.2 30.7 60.2 30.7 66.8 30.7 66.8 25.1 38.4 15 38.4 6.8 41.1 6.8 41.1 1.8 38.4 1.8 38.4 0.3 37.9 0.3 37.3 0.3 37.3 15 8.4 25.1 8.4 30.7 15 30.7 15 30.7"></polygon>
            <rect id="Rectangle-path" x="15" y="32" width="7.5" height="17.7"></rect>
            <rect id="Rectangle-path" x="27.6" y="32" width="7.5" height="17.7"></rect>
            <rect id="Rectangle-path" x="40.2" y="32" width="7.5" height="17.7"></rect>
            <rect id="Rectangle-path" x="52.7" y="32" width="7.5" height="17.7"></rect>
        </g>
    </g>
</svg>