<?xml version="1.0" encoding="UTF-8"?>
<svg width="475px" height="398px" viewBox="0 0 475 398" version="1.1" xmlns="http://www.w3.org/2000/svg" xmlns:xlink="http://www.w3.org/1999/xlink">
    <g id="Page-1" stroke="none" stroke-width="1" fill="none" fill-rule="evenodd">
        <g id="participation">
            <g id="layer1">
                <rect id="rect5428" fill="#82cde2" fill-rule="nonzero" x="0.830188" y="358.55606" width="329.1687" height="39.228226"></rect>
                <path d="M196.61133,18.583984 C191.23601,18.502004 185.99155,20.225654 181.71289,23.48047 C178.5123,25.91558 175.97534,29.11565 174.33398,32.78711 L120.92969,152.25586 L173.50586,152.25586 L210.08398,70.43164 C211.06328,68.24123 213.25325,66.84474 215.65234,66.88086 C326.32902,46.43899 449.58335,121.0125 395.38867,21.61914 L196.61133,18.583984 Z" id="path5391" fill="#82cde2" fill-rule="nonzero"></path>
                <path d="M45.335938,164.25586 L45.335938,346.47461 L288.91992,346.47461 L288.91992,212.53711 L198.61523,270.29492 C179.96338,282.22431 154.70862,277.83243 142.87109,259.32422 C131.03352,240.81594 137.63918,216.0485 156.29102,204.11914 L218.61914,164.25586 L45.335938,164.25586 Z M263.16211,164.25586 L169.2207,224.33789 C160.75794,229.75051 158.64361,239.44081 163.08984,246.39258 C167.53612,253.34441 177.22085,255.48879 185.68359,250.07617 L284.61328,186.80273 C285.92597,185.966983 287.388671,185.394509 288.91992,185.11719 L288.91992,164.25586 L263.16211,164.25586 Z" id="rect5426" fill="#82cde2" fill-rule="nonzero"></path>
                <path d="M161.0876,238.36353 L362.7819,111.95231" id="path5393" stroke="#82cde2"></path>
                <path d="M402.01562,0.416016 C379.54904,10.394429 356.32544,18.406104 335.9707,20.349609 L333.58789,21.44336 C322.56514,26.50403 316.43001,37.7553 317.41797,49.15234 L204.23047,59.8418 C204.23047,59.8418 185.89495,120.28162 186.59375,122.48438 C186.63625,122.61843 186.74128,122.69145 186.875,122.73633 C187.300013,121.488017 188.124394,120.414466 189.2207,119.68164 C199.31581,112.79665 205.32217,108.16855 209.72266,105.33594 C211.9229,103.91963 213.60441,102.74284 216.50391,102.30469 C217.22878,102.19506 218.07848,102.18054 218.95117,102.30069 C219.82386,102.42093 220.7193,102.67486 221.53711,103.10538 C223.17272,103.96642 224.23233,105.27493 224.88281,106.37491 C236.33101,125.73388 237.16882,143.33871 237.71875,162.93936 C237.80906,165.511264 236.249334,167.854391 233.8418,168.76358 L162.75586,214.22843 C149.19856,222.89942 144.83857,240.12924 152.98047,252.85929 C161.12237,265.58929 178.59114,268.85646 192.14844,260.18546 L291.07812,196.91202 C291.07813,196.91202 332.04975,198.29075 413.58594,123.56241 L474.14258,94.00186 C455.409833,59.0527511 431.040391,27.4330236 402.01562,0.416016 L402.01562,0.416016 Z" id="rect5416" fill="#82cde2" fill-rule="nonzero"></path>
            </g>
        </g>
    </g>
</svg>
